<svg version="1.2" baseProfile="tiny" xmlns="http://www.w3.org/2000/svg" viewBox="0 5 24.3 20"><path fill="#FFF" d="M2.2 10.1c2.4-2 4.2-3.6 9.3-.8 2.4 1.4 4.4 1.9 6 1.9 2.9 0 4.7-1.6 6.3-3 .6-.5.6-1.4.2-1.9s-1.3-.7-1.9-.2c-2.4 2-4.2 3.6-9.3.8C6.1 3.1 3 5.8.5 8c-.6.5-.6 1.4-.2 1.9.5.6 1.4.7 1.9.2zM22.1 13c-2.4 2-4.2 3.6-9.3.8C6.1 10 3 12.7.5 14.9c-.6.5-.6 1.4-.2 1.9.5.6 1.3.7 1.9.2 2.4-2 4.2-3.6 9.3-.8 2.4 1.4 4.4 1.9 6 1.9 2.9 0 4.7-1.6 6.3-3 .6-.5.6-1.4.2-1.9-.5-.6-1.3-.7-1.9-.2zm0 6.9c-2.4 2-4.2 3.6-9.3.8C6.1 16.9 3 19.6.5 21.8c-.6.5-.6 1.4-.2 1.9.5.6 1.3.7 1.9.2 2.4-2 4.2-3.6 9.3-.8 2.4 1.4 4.4 1.9 6 1.9 2.9 0 4.7-1.6 6.3-3 .6-.5.6-1.4.2-1.9-.5-.6-1.3-.7-1.9-.2z"/></svg>