<svg version="1.2" baseProfile="tiny" xmlns="http://www.w3.org/2000/svg" viewBox="0 0 26 25"><path fill="#FFF" d="M25.9 7.1l.1-5c0-.3-.2-.5-.4-.6L19.9 0h-.1-.1-.1-.1l-7.4 2.5-3.1.4c-.1 0-.2.1-.3.2L.4 10.6c-.1.1-.2.3-.2.5l.3 3.2L0 21v.5h.1l5.4 3.4H6l7.5-.7h.1L25.8 7.4c.1-.2.1-.2.1-.3 0 .1 0 .1 0 0 0 .1 0 .1 0 0 0 .1 0 0 0 0zm-1.1-.7l-.8-.1c-.3 0-.6.2-.7.5 0 .3.2.6.5.7l.5.1-10.9 15.2-2.5-2.5 3.3-3.3c.1-.1.1-.1.1-.2L17 10l2.5-3.3 2.2.3h.1c.3 0 .5-.2.6-.5.2-.2 0-.5-.4-.5l-2-.3.3-4.3 4.6 1.2-.1 3.8zM1.5 20.9l7.6-7.6.1.4c.1.3.3.4.6.4h.2c.3-.1.5-.4.4-.7l-.2-.8 5.4-1.8-2.2 5.5-1.6 1.6-.8-2.6c-.1-.3-.4-.5-.7-.4-.3.1-.5.4-.4.7l1 3.2-1.1 1.1-3.7 3.7-4.6-2.7zm8.6.3l2.1 2.1-4.6.4 2.5-2.5zM9.3 4.1l2-.2-.8 1.9-4.1 3.3c-.2.2-.3.6-.1.8.1.1.3.2.5.2.1 0 .3 0 .4-.1l4.2-3.5.2-.2 1.1-2.7 6.4-2.2-.3 4.6-2.6 3.4-7 2.4-7.7 7.7.4-4.9 4-3.3c.3-.2.3-.6.1-.8-.2-.3-.6-.3-.8-.1l-3.3 2.7-.2-1.9 7.6-7.1z"/></svg>