<svg version="1.2" baseProfile="tiny" xmlns="http://www.w3.org/2000/svg" viewBox="0 5 20.2 20"><path fill="#FFF" d="M10.7 5c-.2 0-.3.1-.4.2-.2.4-6.1 9-6.1 13.3 0 3.6 2.9 6.5 6.5 6.5s6.5-2.9 6.5-6.5c0-4.3-5.9-12.9-6.1-13.3-.1-.1-.2-.2-.4-.2zm0 19.1c-3.1 0-5.6-2.5-5.6-5.6 0-3.5 4.3-10.2 5.6-12.2 1.3 2 5.6 8.8 5.6 12.2 0 3.1-2.5 5.6-5.6 5.6z"/><path fill="#FFF" d="M10.3 22.4c0 .3.2.5.5.5 2.4 0 4.4-2 4.4-4.4 0-.3-.2-.5-.5-.5s-.5.2-.5.5c0 1.9-1.5 3.4-3.4 3.4-.3 0-.5.3-.5.5zM19.7 6.9h-.9V6c0-.3-.2-.5-.5-.5s-.4.2-.4.5v.9H17c-.3 0-.5.2-.5.5s.2.5.5.5h.9v.9c0 .3.2.5.5.5s.5-.2.5-.5v-1h.9c.3 0 .5-.2.5-.5s-.4-.4-.6-.4zM3.2 20.7h-.9v-.9c0-.3-.2-.5-.5-.5s-.5.2-.5.5v.9H.5c-.3 0-.5.2-.5.5s.2.5.5.5h.9v.9c0 .3.2.5.5.5s.5-.2.5-.5v-.9h.9c.3 0 .5-.2.5-.5-.2-.3-.4-.5-.6-.5z"/></svg>