<svg version="1.2" baseProfile="tiny" xmlns="http://www.w3.org/2000/svg" viewBox="0 0 18.1 25"><path fill="#FFF" d="M9.7.2C9.5.1 9.3 0 9.1 0c-.3 0-.5.1-.6.3C8.1.6 0 9 0 15.9c0 5 4.1 9.1 9.1 9.1s9.1-4.1 9.1-9.1C18.1 8.9 10 .6 9.7.2zm-.6 23.1c-4.1 0-7.4-3.3-7.4-7.4C1.7 10.7 7.3 4.1 9.1 2c1.9 2 7.4 8.5 7.4 13.9 0 4.1-3.3 7.4-7.4 7.4z"/><path fill="#FFF" d="M6.4 13.3c-.2 0-.3.1-.4.2-.1.1-.1.3-.1.5v.9H4.5V14c0-.2-.1-.4-.2-.5-.1-.1-.2-.2-.4-.2s-.3.1-.4.2c-.1.1-.1.3-.1.5v3c0 .2 0 .4.1.5.1.1.2.2.4.2s.3-.1.4-.2c.1-.1.2-.3.2-.5v-1.1h1.3V17c0 .2 0 .4.1.5.1.1.2.2.4.2s.3-.1.4-.2c.1-.1.2-.3.2-.5v-3c0-.2-.1-.4-.2-.5 0-.2-.2-.2-.3-.2zM9.8 19c-.1-.1-.2-.1-.3-.1h-.6c.1 0 .1-.1.2-.2.2-.2.3-.3.4-.3l.3-.3c.1-.2.1-.3.1-.5 0-.1 0-.2-.1-.3 0-.1-.1-.2-.2-.3-.1-.1-.2-.2-.3-.2-.2-.1-.3-.1-.5-.1s-.3 0-.5.1c-.1.1-.3.1-.3.2l-.2.2c0 .1-.1.2-.1.3 0 .1.1.2.1.3.1.1.2.1.3.1.2 0 .2-.1.3-.1 0-.1.1-.1.1-.2v-.1c.1-.1.1-.1.2-.1h.1s.1 0 .1.1V17.8c0 .1-.1.1-.1.2.1-.1 0 0-.1 0s-.2.1-.3.3c-.1.1-.3.3-.5.4-.1.1-.1.1-.1.2s-.1.2-.1.2c0 .1 0 .2.1.3.1.1.2.1.3.1h1.4c.1 0 .2 0 .3-.1.1-.1.1-.2.1-.3.1 0 0-.1-.1-.1zM14.2 14.3c-.2-.3-.4-.6-.7-.8-.3-.2-.7-.3-1.1-.3-.3 0-.6 0-.8.1-.3.1-.5.2-.6.4-.2.2-.3.4-.4.7-.1.3-.1.5-.1.9 0 .3 0 .6.1.8.1.3.2.5.4.7.2.2.4.3.7.4.3.1.5.2.9.2.3 0 .6-.1.9-.2.3-.1.5-.3.6-.4.2-.2.3-.4.4-.7.1-.3.1-.5.1-.9-.1-.2-.2-.6-.4-.9zm-1 1.8c-.1.2-.2.3-.3.4-.1.1-.3.1-.5.1-.1 0-.3 0-.4-.1-.1 0-.2-.1-.3-.2-.1-.1-.2-.2-.2-.4s-.1-.3-.1-.5 0-.4.1-.5c0-.2.1-.3.2-.4.1-.1.2-.2.3-.2.1 0 .2-.1.4-.1s.3 0 .5.1c.1.1.2.2.3.4.1.2.1.4.1.7.1.3 0 .5-.1.7z"/></svg>