<svg version="1.2" baseProfile="tiny" xmlns="http://www.w3.org/2000/svg" viewBox="0 0 176 177.3"><path fill="#FFF" d="M105.1 92.7l-2 2v3.9c-2 3.9-15.8 7.9-17.7 15.8 2 3.9 2 0 3.9 3.9-3.9 2-2 0-3.9 3.9v2c-2 0-2 0-2 2-3.9 2-2 3.9-7.9 5.9l-9.8 3.9c-2 2-2 5.9-5.9 7.9-3.9 3.9-3.9 7.9-9.8 9.8-2 2-2 2-3.9 2-5.9 5.9-2 2-7.9 3.9-2 0-2 2-3.9 0-3.9 0 0-2-5.9-2 0 2 0 2-2 2 0 2 0 2-2 2-3.9 0 0-2-19.7-2-5.9 0-5.9 9.8-2 9.8 3.9 2 27.6 7.9 29.5 7.9 2 0 3.9-2 11.8-2h5.9c7.9-3.9 11.8 0 13.8-3.9 3.9-3.9 2-5.9 5.9-7.9 0-3.9 2-7.9 5.9-9.8-2-2-3.9-3.9 0-5.9 2-3.9 3.9-3.9 7.9-3.9 2 3.9 0 3.9 3.9 3.9 3.9-3.9-2-3.9 5.9-7.9 5.9-3.9 3.9 0 7.9-3.9 2-2 0-2 3.9-2 3.9-2 5.9 2 9.8-3.9 3.9-3.9 7.9-3.9 7.9-7.9 3.9-5.9-3.9 2 5.9-9.8l3.9-2c2 0 0 0 2 2 2-2 3.9-3.9 5.9-3.9 0-9.8 2-5.9-2-11.8-2 2-7.9 3.9-9.8 3.9l5.9-7.9c2-3.9 2-5.9 7.9-7.9v7.9c0 3.9-3.9 2 0 3.9h3.9l2-5.9c0-2-2-2 2-5.9 3.9-5.9 2-2 9.8-11.8l-2-2c-2-2-2-2-2-3.9v-2-3.9s2-3.9 0-7.9c2-2 3.9-3.9 5.9-3.9v-3.9l2-5.9c0-3.9 0-3.9 2-5.9 0-2 0-2-2-5.9 3.9-3.9 2-2 3.9-9.8 3.9-7.9 3.9-2 2-5.9 0-3.9 0-3.9 2-5.9s3.9-2 3.9-3.9c-3.9 0-3.9 0-5.9-2H162c-2 3.9-5.9 5.9-7.9 7.9 2 0 2 0 2 2l-2 2h-2v3.9c-2 7.9-2 3.9-2 9.8l-2 5.9s0 2-2 2c-2 2-2 2-3.9 2-2 2-2 2-2 3.9l-2 3.9c-2 3.9 0 3.9-3.9 5.9-2 2-7.9 9.8-7.9 13.8-3.9 11.8-3.9 2-7.9 17.7-2 2-2 0-2 3.9-1.5-.1-9.4 3.8-11.4 7.8z"/></svg>