<svg version="1.2" baseProfile="tiny" xmlns="http://www.w3.org/2000/svg" viewBox="0 0 577 349.7"><path fill="#FFF" d="M288.5 35c73.7 0 136.2 33.6 175.5 61.8 46.7 33.4 70.7 65.7 76.9 78.1-6.2 12.3-30.2 44.6-76.9 78.1-39.4 28.2-101.8 61.8-175.5 61.8S152.4 281.1 113 252.9c-46.7-33.4-70.7-65.7-76.9-78.1 6.2-12.3 30.2-44.6 76.9-78.1C152.4 68.6 214.8 35 288.5 35m0-35C129.2 0 0 139.9 0 174.9s129.2 174.9 288.5 174.9S577 209.9 577 174.9 447.9 0 288.5 0zm0 69.9c-57.9 0-104.9 47-104.9 104.9 0 57.9 47 104.9 104.9 104.9s104.9-47 104.9-104.9c0-57.9-46.9-104.9-104.9-104.9zm-28.2 105c-24.5 0-44.4-19.9-44.4-44.4s19.9-44.4 44.4-44.4 44.4 19.9 44.4 44.4-19.9 44.4-44.4 44.4z"/></svg>