<svg version="1.2" baseProfile="tiny" xmlns="http://www.w3.org/2000/svg" viewBox="0 0 180.4 234.3"><path fill="#FFF" d="M48.6 128.3v1.8c0 .7-.1 1.4-.3 2.1-.2.6-.5 1.2-1 1.7s-1.1.7-2 .7c-.9 0-1.6-.2-2.1-.6-.5-.4-.9-.9-1.1-1.5-.2-.6-.4-1.3-.4-2.1s-.1-1.6-.1-2.5v-2.6H29.2v3.7c0 2.5.3 4.7 1 6.6.6 2 1.6 3.6 3 5.1 1.3 1.4 3 2.5 5.1 3.2 2.1.8 4.5 1.1 7.3 1.1s5.2-.3 7.3-.9c2.1-.6 3.8-1.6 5.2-3 1.4-1.4 2.4-3.1 3.1-5.3.7-2.2 1-4.8 1-7.9V99.6H48.6v28.7zM105 104.9c-1.3-1.5-3-2.8-5.1-3.8-2.1-1-4.6-1.5-7.7-1.5h-23v44.6h13.7v-13.5H91c2.5 0 4.9-.3 7-1 2.1-.6 4-1.6 5.6-2.9 1.6-1.3 2.8-3 3.6-4.9.9-2 1.3-4.3 1.3-7 0-1.6-.3-3.3-.8-5.1-.4-1.8-1.4-3.4-2.7-4.9zM95 118c-.4.6-1 1.1-1.7 1.4-.7.3-1.5.5-2.3.6-.9.1-1.7.1-2.6.1h-5.3v-9h6.1c.8 0 1.6 0 2.4.1.8.1 1.5.2 2.1.5.6.3 1.1.7 1.4 1.3.3.6.5 1.4.5 2.4.1 1.1-.1 1.9-.6 2.6zM126.3 99.9c-2.6.9-5 2.3-7.1 4.2-2.1 1.9-3.9 4.3-5.2 7.4-1.4 3-2 6.6-2 10.9 0 3.2.5 6.1 1.5 8.9 1 2.8 2.4 5.2 4.2 7.3 1.8 2.1 4.1 3.7 6.7 4.9 2.6 1.2 5.6 1.8 8.9 1.8 2.5 0 4.8-.4 7-1.3s4.1-2.3 5.6-4.3l.4 4.6h8.7v-24.5h-18.2v9.5h6.1c-.2.8-.5 1.6-.9 2.2-.5.6-1 1.1-1.7 1.5-.7.4-1.4.7-2.2.9-.8.2-1.5.3-2.3.3-2.1 0-3.8-.4-5.1-1.2-1.3-.8-2.3-1.8-3.1-3-.7-1.2-1.2-2.4-1.5-3.7-.3-1.3-.4-2.5-.4-3.6v-2c0-.9.1-1.8.2-2.7.1-1 .4-1.9.8-2.9s.9-1.9 1.5-2.7c.7-.8 1.5-1.4 2.6-1.9s2.4-.7 4-.7 3 .5 4.3 1.6c1.2 1 2 2.4 2.2 4h13.2c-1-5.3-3.2-9.4-6.7-12.3-3.5-2.9-8.1-4.4-13.8-4.4-2.6-.1-5.1.3-7.7 1.2z"/><path fill="#FFF" d="M146.9 0H0v234.3h180.4V32.5L146.9 0zm17.9 218.7H15.6V15.6h123.3v24.7h26l-.1 178.4z"/></svg>