<svg version="1.2" baseProfile="tiny" xmlns="http://www.w3.org/2000/svg" viewBox="0 0 40 13.5"><path fill="#FFF" d="M24.3 5.1c-.2 0-.4.2-.4.4s.2.4.4.4.4-.2.4-.4c0-.3-.2-.4-.4-.4zm0 .7c-.2 0-.3-.1-.3-.3s.1-.3.3-.3.3.1.3.3-.1.3-.3.3z"/><path fill="#FFF" d="M24.3 5.2s0 .1 0 0c.1.1.2.2.2.1v-.1h-.2zM24.7 3.7c-.3 0-.6.3-.6.6s.3.6.6.6.6-.3.6-.6-.3-.6-.6-.6zm0 1.2c-.3 0-.5-.2-.5-.5s.2-.5.5-.5.5.2.5.5c0 .2-.2.5-.5.5z"/><path fill="#FFF" d="M24.7 4s0 .1.1.1c.1.1.2.1.2.1V4c-.1-.1-.2-.1-.3 0zM25.1 1.9c-.4 0-.6.3-.6.6s.3.6.6.6c.4 0 .6-.3.6-.6s-.2-.6-.6-.6zm0 1.2c-.3 0-.5-.2-.5-.5s.2-.6.5-.6.5.2.5.5-.2.6-.5.6z"/><path fill="#FFF" d="M25.2 2.1s0 .1.1.2.2.1.2.1 0-.1-.1-.2c0-.1-.2-.1-.2-.1zM24.4.5c0-.3-.2-.5-.5-.5s-.5.2-.5.5.2.5.5.5c.2.1.5-.2.5-.5zm-.6.5c-.3 0-.5-.2-.5-.5s.2-.5.5-.5.5.2.5.5-.2.5-.5.5z"/><path fill="#FFF" d="M23.9.2s0 .1.1.1.1.1.2.1V.2c-.2 0-.3-.1-.3 0zM10.2 2.8c.2.1.4.2.5.3s.2.3.2.6-.1.6-.3.7c-.2.1-.6.2-1.1.2h-.6c-.2 0-.3 0-.5-.1V1.2c.1 0 .3-.1.5-.1h.6c.4 0 .8.1 1 .2s.3.4.3.7c0 .1-.1.3-.1.4-.2.2-.3.3-.5.4zm-.8-.2c.2 0 .3 0 .4-.1s.2-.3.2-.5 0-.3-.1-.4c-.1-.1-.3-.1-.5-.1h-.2v1.1h.2zm-.2.4v1.3h.3c.2 0 .4-.1.5-.1.1-.1.2-.3.2-.5s-.1-.4-.2-.5C9.9 3 9.7 3 9.5 3h-.3zM12.8 1.1c.2 0 .4 0 .5.1.2.1.3.2.4.3.2.1.2.3.3.5.1.2.1.5.1.8 0 .3 0 .6-.1.8-.1.2-.2.4-.3.5-.1.1-.3.2-.4.3-.2.1-.3.1-.5.1s-.4 0-.5-.1c-.2-.1-.3-.2-.4-.3-.1-.1-.2-.3-.3-.5-.1-.2-.1-.5-.1-.8 0-.3 0-.6.1-.8.1-.2.1-.4.3-.5.1-.1.3-.2.4-.3.1 0 .3-.1.5-.1zm0 3.2c.1 0 .2 0 .2-.1.1 0 .1-.1.2-.2s.1-.3.1-.4c0-.2.1-.4.1-.7s0-.5-.1-.7c0-.2-.1-.3-.1-.4-.1-.1-.1-.2-.2-.2s-.2-.1-.2-.1c-.1 0-.2 0-.2.1-.1 0-.1.1-.2.2s-.1.3-.1.4c0 .2-.1.4-.1.7s0 .5.1.7c0 .2.1.3.1.4.1.1.1.2.2.2 0 0 .1.1.2.1zM15.1 4.5c0 .1 0 .3-.1.4 0 .1-.1.2-.1.3h-.4v-1h.3c0-.1.1-.1.1-.2s.1-.2.1-.3v-.5l.1-2h2.1v3h.4v1.1h-.4c-.1-.1-.2-.2-.2-.4 0-.1-.1-.3-.1-.4h-1.8zm1.4-.3V1.5h-.7l-.1 1.7c0 .2 0 .3-.1.4 0 .1-.1.2-.1.3 0 .1-.1.2-.1.2l1.1.1zM18.8 3.7l-.3.8h-.7l1-3.4h.9l1 3.4H20l-.3-.8h-.9zm.5-1.7l-.4 1.4h.8L19.3 2zM1.3 9.6h.6c.9 0 1.5.2 1.9.5.4.3.6.8.6 1.5s-.2 1.1-.6 1.5c-.4.3-1.1.5-1.9.5H.8c-.3 0-.6-.1-.8-.1V7.1h4.1v.7H1.3v1.8zm0 .7v2.6h.6c.4 0 .7-.1.9-.3.2-.2.3-.5.3-1s-.1-.8-.3-1-.5-.3-.9-.3h-.6zM12.9 13.4h-1.3V7.1h1.2v4.2h.1l2-4.2h1.3v6.3H15V9.2h-.1z"/><path fill="#FFF" d="M12.9 7.5c.2 0 .4 0 .6-.1.2-.1.3-.2.4-.3l.5.5c-.2.2-.4.4-.6.5-.3.1-.6.2-.9.2v-.8zM20.4 10.2c.1 0 .2.1.3.1.1.1.2.1.3.2l.3.3c.1.1.1.3.2.5l.3 1.2c0 .1.1.3.3.4s.3.1.6.1v.5h-.8c-.4 0-.7-.1-.9-.3-.2-.2-.4-.5-.5-.8l-.3-1.2c-.1-.3-.2-.5-.3-.6-.1-.1-.3-.2-.5-.2h-.2v2.9h-1.3V7.1h1.3v2.7h.2c.1 0 .3-.1.4-.2 0-.1.1-.3.2-.6l.3-.9c.1-.4.3-.6.5-.8.2-.2.5-.3.9-.3h.7v.5c-.2 0-.4 0-.5.1-.1.1-.2.2-.3.4l-.3 1c-.1.4-.3.6-.4.8-.2.1-.3.3-.5.4zM29.4 13.5h-.8V13c.1 0 .3 0 .4-.1.1-.1.2-.1.3-.2.1-.1.2-.3.2-.4s.1-.4.1-.7l.3-4.4h4v6.3h-1.3V7.8h-1.5l-.2 3.7c0 .4-.1.7-.2.9-.1.3-.2.5-.3.6s-.3.3-.5.3c-.1.2-.3.2-.5.2zM39.4 7.5c-.4-.3-.9-.5-1.7-.5-.8 0-1.4.2-1.8.5-.4.3-.6.9-.6 1.7v4.2h1.3V12h2.1v1.5H40V9.3c0-.8-.2-1.4-.6-1.8zm-2.8 3.7V9.3c0-.3 0-.6.1-.8.1-.2.1-.4.2-.5l.3-.3c.1-.1.3-.1.4-.1.1 0 .3 0 .4.1.1.1.2.1.3.3.1.1.2.3.2.5.1.2.1.5.1.8v1.9h-2zM27.4 7.5c-.4-.3-1-.5-1.8-.5s-1.4.2-1.8.5c-.4.3-.6.9-.6 1.7v4.2h1.3V12h2.1v1.5H28V9.3c0-.8-.2-1.4-.6-1.8zm-2.8 3.7V9.3c0-.3 0-.6.1-.8s.1-.4.2-.5l.3-.3c.1-.1.3-.1.4-.1.2 0 .3 0 .4.1.1.1.2.1.3.3.1.1.2.3.2.5.1.2.1.5.1.8v1.9h-2zM9.6 7.5c-.4-.3-1-.5-1.8-.5s-1.4.2-1.7.5c-.4.4-.6 1-.6 1.8v4.2h1.3V12h2.1v1.5h1.3V9.3c-.1-.8-.2-1.4-.6-1.8zm-2.8 3.7V9.3c0-.3 0-.6.1-.8s.1-.4.2-.5l.3-.3c.1-.1.3-.1.4-.1s.3 0 .4.1c.2.1.3.2.4.3.1.1.2.3.2.5v2.7h-2z"/></svg>