<svg version="1.2" baseProfile="tiny" xmlns="http://www.w3.org/2000/svg" viewBox="0 5 21.5 20"><path fill="#FFF" d="M11.6 22.1c2.8 0 5-2.2 5-5 0-3-3.9-8.3-4.4-8.9-.2-.2-.4-.3-.6-.3-.2 0-.5.1-.6.3-.4.6-4.4 5.9-4.4 8.9 0 2.8 2.2 5 5 5zm-1.7-5.6c.3 0 .6.3.6.6 0 .6.5 1.1 1.1 1.1.3 0 .6.3.6.6s-.3.6-.6.6c-1.3 0-2.3-1-2.3-2.3-.1-.3.2-.6.6-.6z"/><path fill="#FFF" d="M11.6 5c-.4 0-.8.3-.8.8 0 .4.3.8.8.8 4.7 0 8.5 3.8 8.5 8.5s-3.8 8.5-8.5 8.5c-4.3 0-7.9-3.3-8.4-7.5l.3.3c.3.3.8.2 1.1-.1.3-.3.2-.8-.1-1.1l-1.7-1.5c-.2-.1-.4-.2-.6-.2-.2 0-.4.1-.5.3L.2 15.5c-.3.3-.2.8.1 1.1.1.1.3.2.5.2s.4-.1.6-.3l.3-.3c.6 5 4.8 8.9 9.9 8.9 5.5 0 10-4.5 10-10S17.1 5 11.6 5zM7.7 6.5H9c.4 0 .8-.3.8-.8S9.4 5 9 5H7.7c-.4 0-.7.3-.7.8s.3.7.7.7zM5.2 6.5c.2 0 .4-.1.5-.2.2-.1.3-.3.3-.5s-.1-.4-.2-.5c-.2-.2-.4-.3-.6-.3-.2 0-.4.1-.5.2-.2.2-.3.4-.3.6 0 .2.1.4.2.5.2.2.4.2.6.2z"/></svg>