<svg version="1.2" baseProfile="tiny" xmlns="http://www.w3.org/2000/svg" viewBox="0 0 19.9 25"><path fill="#FFF" d="M18 3.9c0-.2-.2-.4-.4-.4h-3.7c-.2 0-.4.2-.4.4s.2.4.4.4h3.7c.2 0 .4-.2.4-.4zM13.5 3h4c.3 0 .5-.2.5-.4V1.2c0-.7-.6-1.2-1.3-1.2h-3c-.2 0-.4.2-.4.4s.2.4.4.4h3c.2 0 .4.2.4.4v1h-3.6c-.2 0-.4.2-.4.4s.2.4.4.4zM19.1 6.9l-1.5-1.2v-.6c0-.2-.2-.4-.4-.4s-.4.2-.4.4v.8c0 .1.1.2.2.3l1.6 1.3c.3.2.5.7.5 1v2.8h-3.3c-.2 0-.4.2-.4.4s.2.4.4.4h3.3v2.4h-3.3c-.2 0-.4.2-.4.4s.2.4.4.4h3.3V21h-3.3c-.2 0-.4.2-.4.4s.2.4.4.4h3.3V23c0 .7-.6 1.2-1.2 1.2h-2.5c-.2 0-.4.2-.4.4s.2.4.4.4h2.5c1.1 0 2-.9 2-2V8.6c0-.6-.3-1.3-.8-1.7z"/><path fill="#FFF" d="M15.8 18.6h2.1c.2 0 .4-.2.4-.4s-.2-.4-.4-.4h-2.1c-.2 0-.4.2-.4.4s.2.4.4.4zM15.8 9h2.1c.2 0 .4-.2.4-.4s-.2-.4-.4-.4h-2.1c-.2 0-.4.2-.4.4s.2.4.4.4zM2.4 4.3h3.7c.2 0 .4-.2.4-.4s-.2-.4-.4-.4H2.4c-.3 0-.4.1-.4.4 0 .2.1.4.4.4zM2.4 3h4c.2 0 .4-.2.4-.4s-.2-.4-.4-.4H2.8v-1c0-.2.2-.4.4-.4h3c.2 0 .4-.2.4-.4S6.4 0 6.2 0h-3C2.5 0 2 .5 2 1.2v1.4c0 .2.1.4.4.4zM4.6 24.2H2c-.7 0-1.2-.6-1.2-1.2v-4.4h3.3c.2 0 .4-.2.4-.4s-.2-.4-.4-.4H.8v-5.6h3.3c.2 0 .4-.2.4-.4s-.2-.4-.4-.4H.8V8.6c0-.3.2-.8.5-1l1.6-1.3c.1-.1.2-.2.2-.4v-.8c0-.2-.2-.4-.4-.4s-.4.2-.4.4v.7L.8 6.9C.3 7.3 0 8 0 8.6V23c0 1.1.9 2 2 2h2.5c.3 0 .5-.2.5-.4s-.2-.4-.4-.4z"/><path fill="#FFF" d="M4.1 21H2c-.2 0-.4.2-.4.4s.2.4.4.4h2.1c.2 0 .4-.2.4-.4s-.2-.4-.4-.4zM4.1 14.6H2c-.2 0-.4.2-.4.4s.2.4.4.4h2.1c.2 0 .4-.2.4-.4s-.2-.4-.4-.4zM2 8.2c-.2 0-.4.2-.4.4s.2.4.4.4h2.1c.2 0 .4-.2.4-.4s-.2-.4-.4-.4H2zM7.7 4.3h4.6c.2 0 .4-.2.4-.4s-.2-.4-.4-.4H7.7c-.2 0-.4.2-.4.4s.1.4.4.4zM7.7 3h4.6c.2 0 .4-.2.4-.4V1.2c0-.7-.5-1.2-1.2-1.2h-3c-.7 0-1.2.5-1.2 1.2v1.4c0 .2.1.4.4.4zm.4-1.8c0-.2.2-.4.4-.4h2.9c.2 0 .4.2.4.4v1H8.1v-1zM13.8 6.9l-1.5-1.2v-.6c0-.2-.2-.4-.4-.4s-.4.2-.4.4v.8c0 .1.1.2.2.3l1.6 1.3c.2.1.3.4.4.6H6.2c.1-.2.2-.5.4-.6l1.6-1.3c.1-.1.2-.2.2-.3v-.8c0-.2-.2-.4-.4-.4s-.4.2-.4.4v.7L6.1 6.9c-.4.4-.8 1.1-.8 1.7V23c0 1.1.9 2 2 2h5.2c1.1 0 2-.9 2-2V8.6c.1-.6-.2-1.3-.7-1.7zm-6.5 5.3h6.5v2.4H6.1V9h7.7v2.4H7.3c-.2 0-.4.2-.4.4s.2.4.4.4zm-1.2 3.2h7.7v2.4H6.1v-2.4zm6.5 8.8H7.4c-.7 0-1.2-.6-1.2-1.2v-1.2h1.2c.2 0 .4-.2.4-.4s-.2-.4-.4-.4H6.1v-2.4h7.7V23c0 .6-.6 1.2-1.2 1.2z"/><path fill="#FFF" d="M12.6 21H8.9c-.2 0-.4.2-.4.4s.2.4.4.4h3.7c.2 0 .4-.2.4-.4s-.2-.4-.4-.4z"/></svg>